<?xml version="1.0" encoding="UTF-8" standalone="no"?>
<!-- Created with Inkscape (http://www.inkscape.org/) -->

<svg
   xmlns:dc="http://purl.org/dc/elements/1.1/"
   xmlns:cc="http://creativecommons.org/ns#"
   xmlns:rdf="http://www.w3.org/1999/02/22-rdf-syntax-ns#"
   xmlns:svg="http://www.w3.org/2000/svg"
   xmlns="http://www.w3.org/2000/svg"
   xmlns:xlink="http://www.w3.org/1999/xlink"
   xmlns:sodipodi="http://sodipodi.sourceforge.net/DTD/sodipodi-0.dtd"
   xmlns:inkscape="http://www.inkscape.org/namespaces/inkscape"
   width="744.09448819"
   height="1052.3622047"
   id="svg2"
   version="1.1"
   inkscape:version="0.47 r22583"
   sodipodi:docname="hip-trace.svg">
  <defs
     id="defs4">
    <inkscape:perspective
       sodipodi:type="inkscape:persp3d"
       inkscape:vp_x="0 : 526.18109 : 1"
       inkscape:vp_y="0 : 1000 : 0"
       inkscape:vp_z="744.09448 : 526.18109 : 1"
       inkscape:persp3d-origin="372.04724 : 350.78739 : 1"
       id="perspective10" />
    <inkscape:perspective
       id="perspective2824"
       inkscape:persp3d-origin="0.5 : 0.33333333 : 1"
       inkscape:vp_z="1 : 0.5 : 1"
       inkscape:vp_y="0 : 1000 : 0"
       inkscape:vp_x="0 : 0.5 : 1"
       sodipodi:type="inkscape:persp3d" />
    <inkscape:perspective
       id="perspective2838"
       inkscape:persp3d-origin="0.5 : 0.33333333 : 1"
       inkscape:vp_z="1 : 0.5 : 1"
       inkscape:vp_y="0 : 1000 : 0"
       inkscape:vp_x="0 : 0.5 : 1"
       sodipodi:type="inkscape:persp3d" />
    <inkscape:perspective
       id="perspective2852"
       inkscape:persp3d-origin="0.5 : 0.33333333 : 1"
       inkscape:vp_z="1 : 0.5 : 1"
       inkscape:vp_y="0 : 1000 : 0"
       inkscape:vp_x="0 : 0.5 : 1"
       sodipodi:type="inkscape:persp3d" />
    <inkscape:perspective
       id="perspective2870"
       inkscape:persp3d-origin="0.5 : 0.33333333 : 1"
       inkscape:vp_z="1 : 0.5 : 1"
       inkscape:vp_y="0 : 1000 : 0"
       inkscape:vp_x="0 : 0.5 : 1"
       sodipodi:type="inkscape:persp3d" />
  </defs>
  <sodipodi:namedview
     id="base"
     pagecolor="#ffffff"
     bordercolor="#666666"
     borderopacity="1.0"
     inkscape:pageopacity="0.0"
     inkscape:pageshadow="2"
     inkscape:zoom="0.3927289"
     inkscape:cx="1411.7277"
     inkscape:cy="362.98542"
     inkscape:document-units="mm"
     inkscape:current-layer="layer1"
     showgrid="false"
     inkscape:window-width="1680"
     inkscape:window-height="1001"
     inkscape:window-x="-4"
     inkscape:window-y="-4"
     inkscape:window-maximized="1" />
  <metadata
     id="metadata7">
    <rdf:RDF>
      <cc:Work
         rdf:about="">
        <dc:format>image/svg+xml</dc:format>
        <dc:type
           rdf:resource="http://purl.org/dc/dcmitype/StillImage" />
        <dc:title></dc:title>
      </cc:Work>
    </rdf:RDF>
  </metadata>
  <g
     inkscape:label="Layer 1"
     inkscape:groupmode="layer"
     id="layer1">
    <image
       y="-930.59406"
       x="-1166.998"
       id="image2872"
       height="653"
       width="1621"
       xlink:href="file:///c:/home/svo/inkscape_pasted_image_20100328_171001.png" />
    <path
       style="color:#000000;fill:none;stroke:#000000;stroke-width:1.77165353;stroke-linecap:round;stroke-linejoin:round;stroke-miterlimit:4;stroke-opacity:1;stroke-dasharray:none;stroke-dashoffset:0;marker:none;visibility:visible;display:inline;overflow:visible;enable-background:accumulate"
       d="m 186.1503,1074.0268 0,140.0457 531.85542,0 0,-77.6617"
       id="path2880" />
    <g
       id="g3660"
       transform="matrix(0,-1,1,0,-358.81757,1902.5033)">
      <path
         sodipodi:nodetypes="cssscccscccccccscccccccsssssssscccccccscccccccccccssssccsscccccccccccscccccccssssssssscccccccscccccccscccsssssccsscsssssscccssscsssccssccssccssccssccssccssssssscccsssssscccccccccccccccccc"
         id="path2878"
         d="m 948.63767,644.61087 c -34.51109,-2.22405 -62.39364,-27.85619 -67.48424,-62.03751 -0.95654,-6.42257 -0.98955,-7.29032 -0.55379,-14.54325 0.38485,-6.40461 0.74399,-8.79334 2.11685,-14.08029 2.76174,-10.63542 5.75487,-16.27172 19.83943,-37.3594 l 11.92019,-17.8472 17.10521,-14.98602 c 9.40788,-8.24231 17.76922,-15.30292 18.58074,-15.69023 0.81153,-0.38732 9.51022,-3.95693 19.33046,-7.93247 l 17.85488,-7.22827 20.8377,-1.90752 20.8378,-1.90754 22.8673,2.58647 22.8672,2.58649 25.0139,5.80872 c 20.5563,4.77362 31.1188,7.54122 59.2731,15.5308 63.6716,18.06868 70.9373,20.00363 101.5691,27.04942 l 29.254,6.72886 31.3448,4.36831 31.3448,4.36834 31.5927,0.46134 31.5927,0.46136 15.9055,-1.45857 c 15.8456,-1.45305 15.962,-1.47081 30.6758,-4.67844 22.0942,-4.81652 25.8814,-4.83896 39.4233,-0.23357 2.5935,0.88204 11.7223,4.66824 20.2861,8.41379 21.3511,9.33846 30.2412,12.35412 41.2814,14.00332 4.4204,0.66031 5.3123,0.89178 4.917,1.27605 -1.5828,1.53902 -15.2472,12.21772 -21.2183,16.58203 -20.2617,14.80967 -37.7152,24.04761 -52.2756,27.669 -3.1186,0.77563 -9.7164,1.95348 -14.6617,2.61746 -8.8401,1.18692 -9.5315,1.21451 -40.9818,1.63647 l -31.9902,0.42922 -34.5263,-3.17445 -34.5263,-3.17438 -30.8231,-5.77803 -30.823,-5.77802 -27.3002,-7.39425 c -29.4139,-7.96677 -52.0506,-15.14891 -92.4094,-29.31948 -10.6271,-3.7314 -26.7835,-9.07293 -35.9029,-11.87009 l -16.5807,-5.08572 -13.5581,-2.02406 -13.558,-2.02406 -10.4744,2.17711 -10.4743,2.17713 -7.8347,7.37908 -7.8346,7.37913 -5.559,13.85656 -5.5591,13.85654 -2.0738,12.90732 c -1.1406,7.09901 -2.8294,16.02447 -3.7531,19.83432 -5.7863,23.86877 -23.183,43.1197 -46.35511,51.29584 -5.44109,1.91989 -8.19578,2.63625 -12.46529,3.24175 -3.01435,0.42748 -6.26977,0.892 -7.23421,1.03228 -0.96442,0.1404 -4.94275,0.0495 -8.84072,-0.20169 z m 16.05309,-1.27107 c 4.26961,-0.60547 7.02419,-1.32183 12.46529,-3.24173 23.08525,-8.14546 40.17155,-27.05351 45.93645,-50.83356 0.9237,-3.80985 2.6126,-12.73531 3.7532,-19.83431 l 2.0737,-12.90733 5.5581,-13.8786 5.5579,-13.8786 8.0425,-7.58767 8.0426,-7.58769 10.4767,-2.17764 10.477,-2.17762 13.558,2.02406 13.558,2.02406 16.5808,5.08572 c 9.1194,2.79716 25.2757,8.13867 35.903,11.87009 40.3587,14.17058 62.9953,21.35272 92.4092,29.31949 l 27.3002,7.39422 30.8231,5.77803 30.8232,5.77802 34.5262,3.17441 34.5263,3.17442 31.9901,-0.42922 c 31.4505,-0.42196 32.1418,-0.44956 40.9818,-1.63643 4.9455,-0.66401 11.5433,-1.84187 14.6617,-2.61749 14.424,-3.58743 31.8985,-12.80354 51.8501,-27.34598 9.7248,-7.08818 20.9871,-16.18491 20.5116,-16.5675 -0.2059,-0.16572 -2.1751,-0.55244 -4.3759,-0.85927 -10.0226,-1.39741 -19.5547,-4.65168 -40.6466,-13.87672 -16.3839,-7.16586 -22.2777,-9.38371 -29.2452,-11.00489 -3.6528,-0.8499 -5.0407,-0.94613 -9.9688,-0.69128 -4.8636,0.25181 -7.9483,0.78069 -20.4953,3.51595 -14.7138,3.20763 -14.8304,3.22539 -30.6757,4.67842 l -15.9057,1.45857 -31.5927,-0.46134 -31.5928,-0.46137 -31.3446,-4.3683 -31.3449,-4.36834 -29.2541,-6.72885 c -30.6316,-7.04578 -37.8973,-8.98075 -101.5689,-27.04941 -28.1543,-7.98961 -38.7169,-10.75721 -59.2732,-15.53079 l -25.0139,-5.80876 -22.8671,-2.58647 -22.8673,-2.58648 -20.846,1.90827 -20.84575,1.90828 -18.64424,7.55519 c -10.25434,4.15537 -19.04706,7.80359 -19.53939,8.10714 -0.49232,0.30357 -8.40006,7.12412 -17.57276,15.15678 l -16.67757,14.60485 -11.92147,17.82181 c -14.08606,21.05782 -17.07422,26.68056 -19.84068,37.33406 -1.37286,5.28695 -1.73197,7.67568 -2.11683,14.08028 -0.43574,7.25294 -0.4025,8.1207 0.55378,14.54326 5.07686,34.08906 32.60841,59.40111 67.02196,61.61888 3.89797,0.25123 7.87629,0.34201 8.84074,0.20169 0.96441,-0.1403 4.21982,-0.60479 7.23417,-1.03231 z M 948.5636,616.38391 c -1.46326,-0.12515 -4.37198,-0.68424 -6.46383,-1.24232 -14.55921,-3.8844 -25.83907,-14.26682 -31.05473,-28.58407 -1.65079,-4.53153 -1.7174,-4.92208 -2.07443,-12.16961 -0.35165,-7.17756 -0.31953,-7.68531 0.82374,-12.25116 2.24937,-8.98364 6.84702,-16.77231 13.44912,-22.78367 15.61835,-14.22079 39.18117,-15.38926 56.11472,-2.78152 9.438,7.02639 15.67589,17.34411 17.42985,28.82994 3.23846,21.2063 -8.9423,41.38216 -29.40665,48.70851 -3.59427,1.2868 -5.23926,1.61162 -10.22049,2.01813 -3.2652,0.26646 -7.13396,0.38214 -8.59724,0.25683 l 0,4e-5 z m 18.7385,-2.6951 c 20.35764,-7.28898 32.27811,-27.09794 29.04543,-48.26664 -3.6816,-24.10821 -26.30959,-40.53324 -50.35408,-36.55062 -17.843,2.95541 -31.30965,15.47484 -35.75865,33.24337 -1.14319,4.56584 -1.17732,5.07371 -0.82375,12.25116 0.35911,7.24743 0.42362,7.63808 2.07443,12.16962 5.18899,14.2439 16.1146,24.30274 30.59246,28.16544 5.12311,1.36683 8.04503,1.55802 15.06108,0.9854 4.96087,-0.40487 6.63142,-0.73325 10.16308,-1.99773 z m -13.67714,-28.26747 c -0.32434,-6.54076 -0.39869,-9.28095 -0.16518,-6.08935 0.23344,3.19161 0.49892,8.54314 0.5897,11.89225 0.0908,3.34915 -0.10019,0.73784 -0.42452,-5.8029 z m -1.54608,-12.72498 c -0.17227,-0.39002 -0.11243,-0.9308 0.13289,-1.2017 0.63783,-0.70433 1.93973,-0.15389 1.80953,0.76492 -0.14504,1.02354 -1.54427,1.33818 -1.94242,0.43678 z m -20.36582,0.45532 c 3.55455,-0.25012 9.50068,-0.54496 13.21362,-0.6551 3.71296,-0.11006 0.80467,0.0948 -6.46282,0.45511 -7.26748,0.36031 -10.30534,0.45036 -6.7508,0.19999 z m 29.07002,-1.44044 c 3.55456,-0.25012 9.50068,-0.54495 13.21364,-0.65509 3.71296,-0.11006 -32.70114,1.75505 -39.96867,2.11534 -7.26748,0.36031 23.2005,-1.20987 26.75503,-1.46025 z m -6.88672,19.12576 c -0.37192,-7.50976 -2.12608,-44.12793 -1.86287,-40.30102 0.26322,3.82691 2.23263,43.57623 2.34139,47.25907 0.10874,3.68283 -0.10663,0.55171 -0.47859,-6.95804 z M 1480.487,560.34013 c -3.7339,-1.20646 -7.0649,-3.97855 -8.9238,-7.4268 -1.8253,-3.38573 -2.0654,-8.33622 -0.5788,-11.9614 1.1458,-2.79641 3.8026,-5.92943 6.1908,-7.30087 6.9265,-3.97732 16.2778,-1.15695 20.1133,6.0661 1.0256,1.9316 1.2873,3.0134 1.4248,5.89015 0.1994,4.22596 -0.6142,6.68045 -3.2855,9.8833 -2.7232,3.26459 -5.3354,4.58077 -9.856,4.96594 -2.0738,0.17676 -4.3367,0.12497 -5.0834,-0.11649 l -10e-5,10e-6 z m 10.9723,-1.89787 c 2.5949,-1.4988 5.0298,-4.34848 6.1587,-7.20743 1.1762,-2.97896 0.8743,-8.31211 -0.6413,-11.32509 -2.0262,-4.02847 -6.4486,-7.03911 -11.0935,-7.55192 -6.319,-0.69762 -12.0907,2.73995 -14.4589,8.61152 -2.1327,5.28793 -0.9267,11.31964 3.0432,15.22006 3.3556,3.29697 6.1213,4.2524 11.081,3.82808 2.9867,-0.25555 4.1738,-0.57188 5.9107,-1.57522 z m -7.1792,-8.03558 -0.2818,-3.84948 -4.9598,0.15137 -4.9598,0.15137 4.9481,-0.3861 4.9482,-0.38613 -0.1197,-4.28455 -0.1207,-4.28457 0.3568,4.28731 0.3569,4.28731 4.2831,-0.11989 4.283,-0.1199 -4.2703,0.35582 -4.2705,0.35582 0.043,3.8455 0.043,3.84552 -0.2819,-3.84948 z"
         style="fill:none;stroke:#000000;stroke-width:1.5625813;stroke-miterlimit:4;stroke-opacity:1;stroke-dasharray:none" />
      <path
         style="fill:none;stroke:#000000;stroke-width:1.5625813;stroke-miterlimit:4;stroke-opacity:1;stroke-dasharray:none"
         d="m 1646.4862,488.02181 c 34.5748,-0.73196 64.5451,22.42478 72.5367,56.04634 1.5016,6.31739 1.6087,7.17914 1.794,14.44279 0.1634,6.41408 0.01,8.82475 -0.9063,14.20965 -1.8433,10.83244 -4.344,16.70383 -16.5757,38.91751 l -10.3523,18.8002 -15.7626,16.39234 c -8.6694,9.01579 -16.3971,16.76482 -17.1726,17.22003 -0.7755,0.45523 -9.1374,4.75482 -18.5821,9.55466 l -17.1723,8.72701 -20.5986,3.68048 -20.5987,3.6805 -23.0047,-0.62371 -23.0046,-0.62374 -25.4184,-3.65085 c -20.8892,-3.00024 -31.6495,-4.85551 -60.3832,-10.41099 -64.9823,-12.56388 -72.3867,-13.87114 -103.5084,-18.27464 l -29.722,-4.20542 -31.6033,-1.67491 -31.6032,-1.67494 -31.5167,2.23897 -31.5166,2.23894 -15.7231,2.8119 c -15.6633,2.80121 -15.7778,2.82886 -30.1639,7.28159 -21.602,6.68618 -25.3734,7.03205 -39.2592,3.60022 -2.6594,-0.65727 -12.0782,-3.64987 -20.9307,-6.65023 -22.0708,-7.48052 -31.1861,-9.72578 -42.3267,-10.42592 -4.4605,-0.28031 -5.3691,-0.43475 -5.0079,-0.85138 1.4455,-1.66861 14.1478,-13.47548 19.7244,-18.33387 18.9225,-16.48628 35.5232,-27.18132 49.721,-32.03319 3.0408,-1.0392 9.5138,-2.77632 14.3845,-3.86029 8.7063,-1.93766 9.3928,-2.02423 40.6922,-5.13111 l 31.8366,-3.16021 34.6712,0.21363 34.6714,0.21363 31.204,3.12403 31.204,3.12401 27.8319,5.03529 c 29.9869,5.42514 53.1544,10.64743 94.576,21.31882 10.9071,2.80999 27.4607,6.75193 36.7857,8.75992 l 16.9545,3.65081 13.6814,0.85855 13.6814,0.85856 10.2501,-3.06389 10.2501,-3.06385 7.1757,-8.02134 7.1757,-8.02138 4.3551,-14.28076 4.3551,-14.28074 0.9637,-13.03729 c 0.53,-7.17051 1.4503,-16.20761 2.0451,-20.08242 3.7264,-24.27581 19.4151,-44.94237 41.8041,-55.06796 5.2573,-2.37767 7.9407,-3.32671 12.1429,-4.29469 2.9668,-0.68341 6.1706,-1.4243 7.1195,-1.64644 0.9491,-0.22227 4.9205,-0.47156 8.8258,-0.55421 z m -15.8859,2.63764 c -4.2022,0.96798 -6.8856,1.91701 -12.143,4.29468 -22.3048,10.08759 -37.7139,30.38606 -41.4264,54.57162 -0.5947,3.87481 -1.515,12.91191 -2.0451,20.08241 l -0.9637,13.03729 -4.3523,14.30263 -4.352,14.30262 -7.365,8.24692 -7.3651,8.24695 -10.2525,3.06459 -10.2525,3.0646 -13.6815,-0.85854 -13.6813,-0.85856 -16.9545,-3.65084 c -9.3249,-2.00795 -25.8786,-5.9499 -36.7858,-8.7599 -41.4214,-10.6714 -64.5889,-15.89369 -94.5759,-21.31883 l -27.832,-5.03525 -31.204,-3.12405 -31.2041,-3.12402 -34.6712,-0.21363 -34.6712,-0.21362 -31.8365,3.16023 c -31.2995,3.10685 -31.9859,3.19342 -40.6922,5.13107 -4.8707,1.084 -11.3438,2.82112 -14.3847,3.8603 -14.0646,4.8064 -30.6882,15.48147 -49.3247,31.67503 -9.0836,7.89292 -19.5279,17.91843 -19.0215,18.25902 0.2195,0.14751 2.2143,0.36462 4.4334,0.48234 10.1054,0.53617 19.8806,2.96433 41.6834,10.354 16.9361,5.74018 22.9979,7.44648 30.0783,8.46657 3.712,0.53481 5.1031,0.51211 9.9915,-0.16277 4.8243,-0.66632 7.8525,-1.45677 20.1201,-5.25377 14.386,-4.45277 14.5005,-4.48041 30.1639,-7.28161 l 15.723,-2.81189 31.5166,-2.23894 31.5166,-2.23896 31.6033,1.67492 31.6036,1.67493 29.7219,4.20541 c 31.1214,4.4035 38.5259,5.71077 103.5082,18.27463 28.7337,5.55549 39.4942,7.41076 60.383,10.41101 l 25.4188,3.65085 23.0045,0.62373 23.0047,0.62371 20.6065,-3.68192 20.6068,-3.68194 17.9308,-9.12015 c 9.8619,-5.01609 18.3108,-9.40203 18.7755,-9.74654 0.4645,-0.3445 7.7606,-7.81559 16.2139,-16.60242 l 15.369,-15.97605 10.3556,-18.775 c 12.2357,-22.18406 14.7327,-28.04151 16.5791,-38.89236 0.9162,-5.3849 1.0699,-7.79557 0.9063,-14.20965 -0.1853,-7.26365 -0.2957,-8.12529 -1.794,-14.44279 -7.9702,-33.53081 -37.5632,-56.39863 -72.0405,-55.66874 -3.9052,0.0827 -7.8766,0.33203 -8.8255,0.55421 -0.949,0.22218 -4.1528,0.96305 -7.1196,1.64646 z m 18.3706,25.47982 c 1.4687,-2.4e-4 4.4147,0.30829 6.5465,0.68564 14.8377,2.62658 26.9633,12.00756 33.3827,25.82695 2.032,4.37396 2.1317,4.7574 3.1064,11.94796 0.9675,7.12073 0.975,7.62988 0.2259,12.27672 -1.4739,9.14293 -5.3893,17.29588 -11.4538,23.8492 -14.3466,15.50293 -37.7235,18.67984 -55.6721,7.56461 -10.0037,-6.19452 -17.1001,-15.94169 -19.8287,-27.23573 -5.0381,-20.85215 5.3747,-41.99475 25.1383,-51.04236 3.4714,-1.58911 5.0826,-2.05325 10.0109,-2.88378 3.2306,-0.54439 7.0752,-0.9901 8.5439,-0.99029 l 0,-4e-5 z m -18.4396,4.28587 c -19.6606,9.00127 -29.8455,29.75606 -24.8164,50.57124 5.7273,23.70565 29.6756,38.13779 53.2921,32.11587 17.5254,-4.46875 29.8733,-18.09272 32.7884,-36.17634 0.7488,-4.64681 0.7396,-5.15573 -0.2259,-12.27672 -0.9768,-7.19028 -1.0743,-7.57401 -3.1063,-11.94795 -6.3867,-13.74862 -18.1316,-22.83745 -32.8864,-25.44934 -5.2212,-0.92422 -8.1488,-0.86512 -15.0903,0.30471 -4.9081,0.82712 -6.5446,1.297 -9.9552,2.85853 z m 16.0417,26.99588 c 0.8818,6.48913 1.1901,9.21297 0.6847,6.05297 -0.505,-3.16003 -1.2273,-8.46922 -1.6035,-11.79839 -0.3765,-3.32916 0.04,-0.74358 0.9188,5.74542 z m 2.6273,12.5464 c 0.205,0.37389 0.1914,0.91781 -0.029,1.20868 -0.5751,0.75624 -1.9193,0.31901 -1.8682,-0.60757 0.057,-1.03219 1.4243,-1.46519 1.898,-0.6011 z m 20.2527,-2.19329 c -3.5203,0.55282 -9.4195,1.35449 -13.1095,1.78139 -3.69,0.42682 -0.8099,-0.0258 6.4003,-1.00549 7.2102,-0.97979 10.2292,-1.32899 6.7092,-0.7759 z m -28.8409,3.91828 c -3.5202,0.55285 -9.4194,1.3545 -13.1093,1.78139 -3.69,0.42685 32.4316,-4.54191 39.6418,-5.52167 7.2102,-0.97977 -23.0124,3.18721 -26.5325,3.74028 z m 5.2279,-19.6441 c 1.0121,7.45054 5.888,43.78498 5.2985,39.99459 -0.5886,-3.79051 -5.9464,-43.22628 -6.3697,-46.88633 -0.4226,-3.66013 0.06,-0.5588 1.0713,6.89172 z m -522.0611,75.3662 c 3.8233,0.88311 7.3789,3.36054 9.5257,6.63738 2.1078,3.21745 2.7699,8.12933 1.5983,11.86827 -0.9029,2.88405 -3.2823,6.23255 -5.5446,7.80299 -6.5614,4.55442 -16.1196,2.54315 -20.5578,-4.32588 -1.1869,-1.83693 -1.54,-2.89243 -1.9227,-5.74692 -0.5596,-4.19351 0.041,-6.70847 2.4293,-10.12783 2.4344,-3.48526 4.9246,-5.01977 9.3958,-5.78969 2.051,-0.35323 4.3098,-0.49492 5.0747,-0.31814 l 1e-4,-10e-6 z m -10.7702,2.82819 c -2.4572,1.71496 -4.6399,4.76222 -5.5205,7.70714 -0.9172,3.06854 -0.1615,8.35641 1.6065,11.22893 2.3627,3.84067 7.0263,6.46253 11.698,6.57671 6.3555,0.15531 11.8123,-3.76269 13.6703,-9.81511 1.6732,-5.45076 -0.043,-11.35742 -4.332,-14.90447 -3.6252,-2.99829 -6.4622,-3.71399 -11.3676,-2.86758 -2.9538,0.50973 -4.1096,0.92632 -5.7545,2.07435 z m 7.8394,7.39295 0.6096,3.81134 4.9288,-0.57446 4.9288,-0.57444 -4.8972,0.80735 -4.8971,0.80736 0.4858,4.25863 0.4858,4.25866 -0.7218,-4.24119 -0.7217,-4.24113 -4.2573,0.48533 -4.2571,0.48533 4.2244,-0.71927 4.2244,-0.71932 -0.3719,-3.8277 -0.3719,-3.82773 0.6096,3.81132 z"
         id="path3654"
         sodipodi:nodetypes="cssscccscccccccscccccccsssssssscccccccscccccccccccssssccsscccccccccccscccccccssssssssscccccccscccccccscccsssssccsscsssssscccssscsssccssccssccssccssccssccssssssscccsssssscccccccccccccccccc" />
      <path
         sodipodi:nodetypes="cssscccscccccccscccccccsssssssscccccccscccccccccccssssccsscccccccccccscccccccssssssssscccccccscccccccscccsssssccsscsssssscccssscsssccssccssccssccssccssccssssssscccsssssscccccccccccccccccc"
         id="path3656"
         d="m 1796.2486,623.03891 c 34.4817,2.63996 65.6848,-18.82663 75.5209,-51.95563 1.848,-6.22484 2.0025,-7.07939 2.5885,-14.32172 0.5177,-6.39525 0.497,-8.81074 -0.1202,-14.23799 -1.2425,-10.91767 -3.4149,-16.91821 -14.4016,-39.77339 l -9.2982,-19.34311 -14.8335,-17.23771 c -8.1585,-9.48074 -15.4464,-17.64462 -16.1956,-18.14194 -0.7492,-0.49739 -8.8609,-5.25211 -18.0263,-10.56614 l -16.6641,-9.66187 -20.3641,-4.81226 -20.364,-4.81227 -23.004,-0.64744 -23.004,-0.64745 -25.5813,2.24175 c -21.0229,1.84227 -31.8692,3.10054 -60.8658,7.06098 -65.577,8.95665 -73.0423,9.85306 -104.3596,12.53142 l -29.9087,2.55788 -31.6476,-0.0727 -31.6476,-0.0726 -31.345,-3.97578 -31.3449,-3.97577 -15.5438,-3.67576 c -15.4846,-3.6618 -15.5976,-3.69574 -29.7158,-8.93603 -21.2,-7.86877 -24.9465,-8.42235 -39.0006,-5.76247 -2.6916,0.50942 -12.2612,2.9774 -21.2658,5.48439 -22.4501,6.25044 -31.6755,7.98897 -42.8379,8.07289 -4.4693,0.0335 -5.3847,0.13771 -5.0474,0.5738 1.3514,1.74591 13.3824,14.23611 18.682,19.39502 17.9832,17.50595 33.9682,29.1013 47.8764,34.72972 2.9791,1.2055 9.3462,3.2974 14.1496,4.64867 8.5861,2.41543 9.2667,2.53977 40.3469,7.37013 l 31.6134,4.91328 34.63,1.70111 34.6304,1.70114 31.3288,-1.39628 31.3288,-1.3963 28.0676,-3.49083 c 30.2409,-3.76111 53.6611,-7.69621 95.6089,-16.06417 11.0457,-2.20347 27.7915,-5.22537 37.2131,-6.7154 l 17.1304,-2.70908 13.708,-0.1018 13.7078,-0.10182 10.0653,3.62519 10.0654,3.62515 6.7217,8.40532 6.7219,8.40534 3.5599,14.49946 3.5599,14.49944 0.2428,13.07061 c 0.1337,7.1888 0.5534,16.26294 0.9332,20.16469 2.3803,24.44452 16.9038,45.94584 38.6996,57.29222 5.1181,2.66431 7.7448,3.76007 11.8873,4.95861 2.9245,0.84618 6.0824,1.76285 7.0179,2.03705 0.935,0.27433 4.8867,0.74252 8.7815,1.04068 z m -15.7159,-3.51077 c -4.1423,-1.19855 -6.7693,-2.29429 -11.8873,-4.95861 -21.7139,-11.30381 -35.9787,-32.42213 -38.35,-56.77577 -0.3799,-3.90174 -0.7998,-12.9759 -0.9332,-20.16471 l -0.2418,-13.0706 -3.5558,-14.52113 -3.5558,-14.52112 -6.8984,-8.64101 -6.8984,-8.64102 -10.0677,-3.62605 -10.0677,-3.62601 -13.7078,0.1018 -13.7079,0.1018 -17.1304,2.7091 c -9.4216,1.49001 -26.1676,4.51192 -37.2133,6.71538 -41.9475,8.36797 -65.3681,12.30308 -95.6088,16.06419 l -28.0674,3.4908 -31.3289,1.39629 -31.3291,1.39629 -34.6301,-1.70113 -34.6301,-1.70111 -31.6136,-4.91329 c -31.08,-4.83034 -31.7607,-4.95468 -40.3468,-7.37013 -4.8033,-1.35128 -11.1707,-3.44318 -14.1495,-4.64866 -13.7779,-5.57568 -29.7866,-17.15235 -47.5005,-34.35021 -8.6339,-8.38247 -18.5087,-18.96935 -17.9843,-19.28146 0.2272,-0.13516 2.2313,-0.24179 4.4536,-0.23679 10.1192,0.0226 20.0136,-1.86206 42.1913,-8.03659 17.2272,-4.79629 23.3739,-6.16528 30.4998,-6.79285 3.736,-0.32904 5.1236,-0.22957 9.9673,0.71418 4.78,0.9317 7.7602,1.88815 19.7992,6.35672 14.1185,5.24031 14.2311,5.27426 29.716,8.93604 l 15.5437,3.67576 31.3451,3.97579 31.3447,3.97574 31.6476,0.0727 31.6478,0.0726 29.9086,-2.55785 c 31.3175,-2.67836 38.7826,-3.57482 104.3595,-12.53144 28.9967,-3.96045 39.8431,-5.21872 60.8658,-7.06097 l 25.5815,-2.24177 23.004,0.64743 23.0039,0.64747 20.3719,4.81414 20.3721,4.81414 17.3997,10.09631 c 9.5699,5.55296 17.7638,10.39874 18.2088,10.76839 0.4448,0.36961 7.3174,8.23218 15.2724,17.47235 l 14.4635,16.80029 9.3029,19.31816 c 10.9922,22.82583 13.1621,28.8122 14.4064,39.74847 0.6228,5.42668 0.638,7.84276 0.1204,14.23802 -0.5862,7.24234 -0.7406,8.09683 -2.5887,14.3217 -9.8096,33.03958 -40.62,54.23849 -75.0043,51.606 -3.8948,-0.29821 -7.8465,-0.76648 -8.7815,-1.04068 -0.9352,-0.27423 -4.0934,-1.19089 -7.0179,-2.03707 z m 19.7494,-24.42659 c 1.4665,0.0817 4.4248,-0.064 6.5743,-0.32318 14.9604,-1.80326 27.5854,-10.50042 34.7582,-23.94426 2.2702,-4.25509 2.3908,-4.63244 3.7612,-11.75821 1.3592,-7.05645 1.3948,-7.56442 0.9033,-12.24552 -0.9673,-9.2103 -4.4262,-17.56708 -10.1195,-24.44525 -13.4687,-16.27145 -36.6343,-20.7343 -55.1693,-10.62707 -10.3305,5.63269 -17.9543,14.97318 -21.3025,26.0993 -6.1817,20.54218 3.0478,42.22746 22.2818,52.35254 3.3782,1.77836 4.9614,2.33078 9.8363,3.43214 3.1956,0.72195 7.0097,1.37927 8.4762,1.46053 l -10e-5,4e-5 z m -18.1748,-5.29751 c -19.1337,-10.07313 -28.157,-31.35863 -21.9863,-51.86436 7.0277,-23.35323 31.7364,-36.44103 54.9843,-29.12429 17.2517,5.42961 28.8287,19.71462 30.7407,37.93162 0.4911,4.68107 0.4538,5.18871 -0.9032,12.24552 -1.3724,7.12536 -1.491,7.50312 -3.7615,11.75822 -7.1361,13.37496 -19.3648,21.80143 -34.2413,23.59462 -5.2644,0.63453 -8.184,0.41387 -15.0504,-1.13745 -4.855,-1.09689 -6.4629,-1.65642 -9.7823,-3.40388 z m 17.5078,-26.06894 c 1.239,-6.43053 1.697,-9.13317 1.0178,-6.00593 -0.6786,3.12733 -1.693,8.38853 -2.2523,11.69189 -0.5599,3.30326 -0.01,0.74462 1.2345,-5.68596 z m 3.3161,-12.38218 c 0.2253,-0.362 0.2418,-0.90584 0.036,-1.2085 -0.5327,-0.78683 -1.899,-0.42451 -1.899,0.50348 0,1.03378 1.3414,1.5416 1.8619,0.70498 z m 20.1006,3.30823 c -3.4845,-0.74637 -9.3304,-1.87254 -12.9909,-2.50253 -3.6609,-0.62992 -0.8102,-0.0189 6.3348,1.35736 7.145,1.37639 10.1403,1.89178 6.6561,1.14517 z m -28.5804,-5.5048 c -3.4844,-0.74637 -9.3304,-1.87254 -12.9911,-2.50253 -3.6608,-0.62994 32.1316,6.32574 39.2766,7.70216 7.1451,1.37638 -22.8012,-4.45302 -26.2855,-5.19963 z m 4.1353,19.9028 c 1.4218,-7.3833 8.2965,-43.39305 7.4987,-39.64102 -0.798,3.75204 -8.3241,42.83202 -8.9488,46.4631 -0.6241,3.63122 0.031,0.56109 1.4501,-6.82208 z M 1281.4834,464.98173 c 3.8663,-0.67067 7.5531,-2.94802 9.8775,-6.10132 2.2824,-3.09613 3.2148,-7.96398 2.2517,-11.76179 -0.7422,-2.9295 -2.933,-6.4043 -5.1051,-8.09726 -6.2999,-4.90975 -15.9545,-3.42932 -20.7654,3.18419 -1.2864,1.76859 -1.6974,2.80297 -2.237,5.63196 -0.7905,4.15622 -0.3293,6.70051 1.8664,10.24653 2.2382,3.61435 4.6397,5.284 9.0617,6.29963 2.0283,0.46596 4.2761,0.73217 5.0494,0.59791 l 10e-5,10e-6 z m -10.5975,-3.41856 c -2.3589,-1.84804 -4.3698,-5.01117 -5.0865,-8.00023 -0.7467,-3.11451 0.3001,-8.35256 2.2238,-11.12308 2.5714,-3.70437 7.3726,-6.06471 12.0434,-5.92078 6.3543,0.19588 11.5865,4.40921 13.1075,10.55498 1.3697,5.53483 -0.6702,11.3377 -5.1484,14.64254 -3.7851,2.79353 -6.6574,3.3515 -11.5086,2.23551 -2.9212,-0.67206 -4.052,-1.15181 -5.6311,-2.38892 z m 8.2355,-6.94883 0.8194,-3.77185 4.8893,0.84571 4.8895,0.84572 -4.8451,-1.07651 -4.8449,-1.07653 0.72,-4.2253 0.7201,-4.22534 -0.9547,4.19482 -0.9549,4.19482 -4.2237,-0.71963 -4.2239,-0.71966 4.1782,0.95144 4.1783,0.95145 -0.5826,3.80135 -0.5829,3.80134 0.8191,-3.77186 z"
         style="fill:none;stroke:#000000;stroke-width:1.5625813;stroke-miterlimit:4;stroke-opacity:1;stroke-dasharray:none" />
      <rect
         transform="matrix(0,-1,1,0,0,0)"
         y="873.08502"
         x="-692.9903"
         height="1007.0014"
         width="283.21973"
         id="rect3658"
         style="color:#000000;fill:none;stroke:#000000;stroke-width:0.70866144;stroke-linecap:round;stroke-linejoin:round;stroke-miterlimit:4;stroke-opacity:1;stroke-dasharray:none;stroke-dashoffset:0;marker:none;visibility:visible;display:inline;overflow:visible;enable-background:accumulate" />
    </g>
    <g
       transform="matrix(0,-1,1,0,0.20871583,1902.5033)"
       id="g3666">
      <path
         style="fill:none;stroke:#000000;stroke-width:1.5625813;stroke-miterlimit:4;stroke-opacity:1;stroke-dasharray:none"
         d="m 948.63767,644.61087 c -34.51109,-2.22405 -62.39364,-27.85619 -67.48424,-62.03751 -0.95654,-6.42257 -0.98955,-7.29032 -0.55379,-14.54325 0.38485,-6.40461 0.74399,-8.79334 2.11685,-14.08029 2.76174,-10.63542 5.75487,-16.27172 19.83943,-37.3594 l 11.92019,-17.8472 17.10521,-14.98602 c 9.40788,-8.24231 17.76922,-15.30292 18.58074,-15.69023 0.81153,-0.38732 9.51022,-3.95693 19.33046,-7.93247 l 17.85488,-7.22827 20.8377,-1.90752 20.8378,-1.90754 22.8673,2.58647 22.8672,2.58649 25.0139,5.80872 c 20.5563,4.77362 31.1188,7.54122 59.2731,15.5308 63.6716,18.06868 70.9373,20.00363 101.5691,27.04942 l 29.254,6.72886 31.3448,4.36831 31.3448,4.36834 31.5927,0.46134 31.5927,0.46136 15.9055,-1.45857 c 15.8456,-1.45305 15.962,-1.47081 30.6758,-4.67844 22.0942,-4.81652 25.8814,-4.83896 39.4233,-0.23357 2.5935,0.88204 11.7223,4.66824 20.2861,8.41379 21.3511,9.33846 30.2412,12.35412 41.2814,14.00332 4.4204,0.66031 5.3123,0.89178 4.917,1.27605 -1.5828,1.53902 -15.2472,12.21772 -21.2183,16.58203 -20.2617,14.80967 -37.7152,24.04761 -52.2756,27.669 -3.1186,0.77563 -9.7164,1.95348 -14.6617,2.61746 -8.8401,1.18692 -9.5315,1.21451 -40.9818,1.63647 l -31.9902,0.42922 -34.5263,-3.17445 -34.5263,-3.17438 -30.8231,-5.77803 -30.823,-5.77802 -27.3002,-7.39425 c -29.4139,-7.96677 -52.0506,-15.14891 -92.4094,-29.31948 -10.6271,-3.7314 -26.7835,-9.07293 -35.9029,-11.87009 l -16.5807,-5.08572 -13.5581,-2.02406 -13.558,-2.02406 -10.4744,2.17711 -10.4743,2.17713 -7.8347,7.37908 -7.8346,7.37913 -5.559,13.85656 -5.5591,13.85654 -2.0738,12.90732 c -1.1406,7.09901 -2.8294,16.02447 -3.7531,19.83432 -5.7863,23.86877 -23.183,43.1197 -46.35511,51.29584 -5.44109,1.91989 -8.19578,2.63625 -12.46529,3.24175 -3.01435,0.42748 -6.26977,0.892 -7.23421,1.03228 -0.96442,0.1404 -4.94275,0.0495 -8.84072,-0.20169 z m 16.05309,-1.27107 c 4.26961,-0.60547 7.02419,-1.32183 12.46529,-3.24173 23.08525,-8.14546 40.17155,-27.05351 45.93645,-50.83356 0.9237,-3.80985 2.6126,-12.73531 3.7532,-19.83431 l 2.0737,-12.90733 5.5581,-13.8786 5.5579,-13.8786 8.0425,-7.58767 8.0426,-7.58769 10.4767,-2.17764 10.477,-2.17762 13.558,2.02406 13.558,2.02406 16.5808,5.08572 c 9.1194,2.79716 25.2757,8.13867 35.903,11.87009 40.3587,14.17058 62.9953,21.35272 92.4092,29.31949 l 27.3002,7.39422 30.8231,5.77803 30.8232,5.77802 34.5262,3.17441 34.5263,3.17442 31.9901,-0.42922 c 31.4505,-0.42196 32.1418,-0.44956 40.9818,-1.63643 4.9455,-0.66401 11.5433,-1.84187 14.6617,-2.61749 14.424,-3.58743 31.8985,-12.80354 51.8501,-27.34598 9.7248,-7.08818 20.9871,-16.18491 20.5116,-16.5675 -0.2059,-0.16572 -2.1751,-0.55244 -4.3759,-0.85927 -10.0226,-1.39741 -19.5547,-4.65168 -40.6466,-13.87672 -16.3839,-7.16586 -22.2777,-9.38371 -29.2452,-11.00489 -3.6528,-0.8499 -5.0407,-0.94613 -9.9688,-0.69128 -4.8636,0.25181 -7.9483,0.78069 -20.4953,3.51595 -14.7138,3.20763 -14.8304,3.22539 -30.6757,4.67842 l -15.9057,1.45857 -31.5927,-0.46134 -31.5928,-0.46137 -31.3446,-4.3683 -31.3449,-4.36834 -29.2541,-6.72885 c -30.6316,-7.04578 -37.8973,-8.98075 -101.5689,-27.04941 -28.1543,-7.98961 -38.7169,-10.75721 -59.2732,-15.53079 l -25.0139,-5.80876 -22.8671,-2.58647 -22.8673,-2.58648 -20.846,1.90827 -20.84575,1.90828 -18.64424,7.55519 c -10.25434,4.15537 -19.04706,7.80359 -19.53939,8.10714 -0.49232,0.30357 -8.40006,7.12412 -17.57276,15.15678 l -16.67757,14.60485 -11.92147,17.82181 c -14.08606,21.05782 -17.07422,26.68056 -19.84068,37.33406 -1.37286,5.28695 -1.73197,7.67568 -2.11683,14.08028 -0.43574,7.25294 -0.4025,8.1207 0.55378,14.54326 5.07686,34.08906 32.60841,59.40111 67.02196,61.61888 3.89797,0.25123 7.87629,0.34201 8.84074,0.20169 0.96441,-0.1403 4.21982,-0.60479 7.23417,-1.03231 z M 948.5636,616.38391 c -1.46326,-0.12515 -4.37198,-0.68424 -6.46383,-1.24232 -14.55921,-3.8844 -25.83907,-14.26682 -31.05473,-28.58407 -1.65079,-4.53153 -1.7174,-4.92208 -2.07443,-12.16961 -0.35165,-7.17756 -0.31953,-7.68531 0.82374,-12.25116 2.24937,-8.98364 6.84702,-16.77231 13.44912,-22.78367 15.61835,-14.22079 39.18117,-15.38926 56.11472,-2.78152 9.438,7.02639 15.67589,17.34411 17.42985,28.82994 3.23846,21.2063 -8.9423,41.38216 -29.40665,48.70851 -3.59427,1.2868 -5.23926,1.61162 -10.22049,2.01813 -3.2652,0.26646 -7.13396,0.38214 -8.59724,0.25683 l 0,4e-5 z m 18.7385,-2.6951 c 20.35764,-7.28898 32.27811,-27.09794 29.04543,-48.26664 -3.6816,-24.10821 -26.30959,-40.53324 -50.35408,-36.55062 -17.843,2.95541 -31.30965,15.47484 -35.75865,33.24337 -1.14319,4.56584 -1.17732,5.07371 -0.82375,12.25116 0.35911,7.24743 0.42362,7.63808 2.07443,12.16962 5.18899,14.2439 16.1146,24.30274 30.59246,28.16544 5.12311,1.36683 8.04503,1.55802 15.06108,0.9854 4.96087,-0.40487 6.63142,-0.73325 10.16308,-1.99773 z m -13.67714,-28.26747 c -0.32434,-6.54076 -0.39869,-9.28095 -0.16518,-6.08935 0.23344,3.19161 0.49892,8.54314 0.5897,11.89225 0.0908,3.34915 -0.10019,0.73784 -0.42452,-5.8029 z m -1.54608,-12.72498 c -0.17227,-0.39002 -0.11243,-0.9308 0.13289,-1.2017 0.63783,-0.70433 1.93973,-0.15389 1.80953,0.76492 -0.14504,1.02354 -1.54427,1.33818 -1.94242,0.43678 z m -20.36582,0.45532 c 3.55455,-0.25012 9.50068,-0.54496 13.21362,-0.6551 3.71296,-0.11006 0.80467,0.0948 -6.46282,0.45511 -7.26748,0.36031 -10.30534,0.45036 -6.7508,0.19999 z m 29.07002,-1.44044 c 3.55456,-0.25012 9.50068,-0.54495 13.21364,-0.65509 3.71296,-0.11006 -32.70114,1.75505 -39.96867,2.11534 -7.26748,0.36031 23.2005,-1.20987 26.75503,-1.46025 z m -6.88672,19.12576 c -0.37192,-7.50976 -2.12608,-44.12793 -1.86287,-40.30102 0.26322,3.82691 2.23263,43.57623 2.34139,47.25907 0.10874,3.68283 -0.10663,0.55171 -0.47859,-6.95804 z M 1480.487,560.34013 c -3.7339,-1.20646 -7.0649,-3.97855 -8.9238,-7.4268 -1.8253,-3.38573 -2.0654,-8.33622 -0.5788,-11.9614 1.1458,-2.79641 3.8026,-5.92943 6.1908,-7.30087 6.9265,-3.97732 16.2778,-1.15695 20.1133,6.0661 1.0256,1.9316 1.2873,3.0134 1.4248,5.89015 0.1994,4.22596 -0.6142,6.68045 -3.2855,9.8833 -2.7232,3.26459 -5.3354,4.58077 -9.856,4.96594 -2.0738,0.17676 -4.3367,0.12497 -5.0834,-0.11649 l -10e-5,10e-6 z m 10.9723,-1.89787 c 2.5949,-1.4988 5.0298,-4.34848 6.1587,-7.20743 1.1762,-2.97896 0.8743,-8.31211 -0.6413,-11.32509 -2.0262,-4.02847 -6.4486,-7.03911 -11.0935,-7.55192 -6.319,-0.69762 -12.0907,2.73995 -14.4589,8.61152 -2.1327,5.28793 -0.9267,11.31964 3.0432,15.22006 3.3556,3.29697 6.1213,4.2524 11.081,3.82808 2.9867,-0.25555 4.1738,-0.57188 5.9107,-1.57522 z m -7.1792,-8.03558 -0.2818,-3.84948 -4.9598,0.15137 -4.9598,0.15137 4.9481,-0.3861 4.9482,-0.38613 -0.1197,-4.28455 -0.1207,-4.28457 0.3568,4.28731 0.3569,4.28731 4.2831,-0.11989 4.283,-0.1199 -4.2703,0.35582 -4.2705,0.35582 0.043,3.8455 0.043,3.84552 -0.2819,-3.84948 z"
         id="path3668"
         sodipodi:nodetypes="cssscccscccccccscccccccsssssssscccccccscccccccccccssssccsscccccccccccscccccccssssssssscccccccscccccccscccsssssccsscsssssscccssscsssccssccssccssccssccssccssssssscccsssssscccccccccccccccccc" />
      <path
         sodipodi:nodetypes="cssscccscccccccscccccccsssssssscccccccscccccccccccssssccsscccccccccccscccccccssssssssscccccccscccccccscccsssssccsscsssssscccssscsssccssccssccssccssccssccssssssscccsssssscccccccccccccccccc"
         id="path3670"
         d="m 1646.4862,488.02181 c 34.5748,-0.73196 64.5451,22.42478 72.5367,56.04634 1.5016,6.31739 1.6087,7.17914 1.794,14.44279 0.1634,6.41408 0.01,8.82475 -0.9063,14.20965 -1.8433,10.83244 -4.344,16.70383 -16.5757,38.91751 l -10.3523,18.8002 -15.7626,16.39234 c -8.6694,9.01579 -16.3971,16.76482 -17.1726,17.22003 -0.7755,0.45523 -9.1374,4.75482 -18.5821,9.55466 l -17.1723,8.72701 -20.5986,3.68048 -20.5987,3.6805 -23.0047,-0.62371 -23.0046,-0.62374 -25.4184,-3.65085 c -20.8892,-3.00024 -31.6495,-4.85551 -60.3832,-10.41099 -64.9823,-12.56388 -72.3867,-13.87114 -103.5084,-18.27464 l -29.722,-4.20542 -31.6033,-1.67491 -31.6032,-1.67494 -31.5167,2.23897 -31.5166,2.23894 -15.7231,2.8119 c -15.6633,2.80121 -15.7778,2.82886 -30.1639,7.28159 -21.602,6.68618 -25.3734,7.03205 -39.2592,3.60022 -2.6594,-0.65727 -12.0782,-3.64987 -20.9307,-6.65023 -22.0708,-7.48052 -31.1861,-9.72578 -42.3267,-10.42592 -4.4605,-0.28031 -5.3691,-0.43475 -5.0079,-0.85138 1.4455,-1.66861 14.1478,-13.47548 19.7244,-18.33387 18.9225,-16.48628 35.5232,-27.18132 49.721,-32.03319 3.0408,-1.0392 9.5138,-2.77632 14.3845,-3.86029 8.7063,-1.93766 9.3928,-2.02423 40.6922,-5.13111 l 31.8366,-3.16021 34.6712,0.21363 34.6714,0.21363 31.204,3.12403 31.204,3.12401 27.8319,5.03529 c 29.9869,5.42514 53.1544,10.64743 94.576,21.31882 10.9071,2.80999 27.4607,6.75193 36.7857,8.75992 l 16.9545,3.65081 13.6814,0.85855 13.6814,0.85856 10.2501,-3.06389 10.2501,-3.06385 7.1757,-8.02134 7.1757,-8.02138 4.3551,-14.28076 4.3551,-14.28074 0.9637,-13.03729 c 0.53,-7.17051 1.4503,-16.20761 2.0451,-20.08242 3.7264,-24.27581 19.4151,-44.94237 41.8041,-55.06796 5.2573,-2.37767 7.9407,-3.32671 12.1429,-4.29469 2.9668,-0.68341 6.1706,-1.4243 7.1195,-1.64644 0.9491,-0.22227 4.9205,-0.47156 8.8258,-0.55421 z m -15.8859,2.63764 c -4.2022,0.96798 -6.8856,1.91701 -12.143,4.29468 -22.3048,10.08759 -37.7139,30.38606 -41.4264,54.57162 -0.5947,3.87481 -1.515,12.91191 -2.0451,20.08241 l -0.9637,13.03729 -4.3523,14.30263 -4.352,14.30262 -7.365,8.24692 -7.3651,8.24695 -10.2525,3.06459 -10.2525,3.0646 -13.6815,-0.85854 -13.6813,-0.85856 -16.9545,-3.65084 c -9.3249,-2.00795 -25.8786,-5.9499 -36.7858,-8.7599 -41.4214,-10.6714 -64.5889,-15.89369 -94.5759,-21.31883 l -27.832,-5.03525 -31.204,-3.12405 -31.2041,-3.12402 -34.6712,-0.21363 -34.6712,-0.21362 -31.8365,3.16023 c -31.2995,3.10685 -31.9859,3.19342 -40.6922,5.13107 -4.8707,1.084 -11.3438,2.82112 -14.3847,3.8603 -14.0646,4.8064 -30.6882,15.48147 -49.3247,31.67503 -9.0836,7.89292 -19.5279,17.91843 -19.0215,18.25902 0.2195,0.14751 2.2143,0.36462 4.4334,0.48234 10.1054,0.53617 19.8806,2.96433 41.6834,10.354 16.9361,5.74018 22.9979,7.44648 30.0783,8.46657 3.712,0.53481 5.1031,0.51211 9.9915,-0.16277 4.8243,-0.66632 7.8525,-1.45677 20.1201,-5.25377 14.386,-4.45277 14.5005,-4.48041 30.1639,-7.28161 l 15.723,-2.81189 31.5166,-2.23894 31.5166,-2.23896 31.6033,1.67492 31.6036,1.67493 29.7219,4.20541 c 31.1214,4.4035 38.5259,5.71077 103.5082,18.27463 28.7337,5.55549 39.4942,7.41076 60.383,10.41101 l 25.4188,3.65085 23.0045,0.62373 23.0047,0.62371 20.6065,-3.68192 20.6068,-3.68194 17.9308,-9.12015 c 9.8619,-5.01609 18.3108,-9.40203 18.7755,-9.74654 0.4645,-0.3445 7.7606,-7.81559 16.2139,-16.60242 l 15.369,-15.97605 10.3556,-18.775 c 12.2357,-22.18406 14.7327,-28.04151 16.5791,-38.89236 0.9162,-5.3849 1.0699,-7.79557 0.9063,-14.20965 -0.1853,-7.26365 -0.2957,-8.12529 -1.794,-14.44279 -7.9702,-33.53081 -37.5632,-56.39863 -72.0405,-55.66874 -3.9052,0.0827 -7.8766,0.33203 -8.8255,0.55421 -0.949,0.22218 -4.1528,0.96305 -7.1196,1.64646 z m 18.3706,25.47982 c 1.4687,-2.4e-4 4.4147,0.30829 6.5465,0.68564 14.8377,2.62658 26.9633,12.00756 33.3827,25.82695 2.032,4.37396 2.1317,4.7574 3.1064,11.94796 0.9675,7.12073 0.975,7.62988 0.2259,12.27672 -1.4739,9.14293 -5.3893,17.29588 -11.4538,23.8492 -14.3466,15.50293 -37.7235,18.67984 -55.6721,7.56461 -10.0037,-6.19452 -17.1001,-15.94169 -19.8287,-27.23573 -5.0381,-20.85215 5.3747,-41.99475 25.1383,-51.04236 3.4714,-1.58911 5.0826,-2.05325 10.0109,-2.88378 3.2306,-0.54439 7.0752,-0.9901 8.5439,-0.99029 l 0,-4e-5 z m -18.4396,4.28587 c -19.6606,9.00127 -29.8455,29.75606 -24.8164,50.57124 5.7273,23.70565 29.6756,38.13779 53.2921,32.11587 17.5254,-4.46875 29.8733,-18.09272 32.7884,-36.17634 0.7488,-4.64681 0.7396,-5.15573 -0.2259,-12.27672 -0.9768,-7.19028 -1.0743,-7.57401 -3.1063,-11.94795 -6.3867,-13.74862 -18.1316,-22.83745 -32.8864,-25.44934 -5.2212,-0.92422 -8.1488,-0.86512 -15.0903,0.30471 -4.9081,0.82712 -6.5446,1.297 -9.9552,2.85853 z m 16.0417,26.99588 c 0.8818,6.48913 1.1901,9.21297 0.6847,6.05297 -0.505,-3.16003 -1.2273,-8.46922 -1.6035,-11.79839 -0.3765,-3.32916 0.04,-0.74358 0.9188,5.74542 z m 2.6273,12.5464 c 0.205,0.37389 0.1914,0.91781 -0.029,1.20868 -0.5751,0.75624 -1.9193,0.31901 -1.8682,-0.60757 0.057,-1.03219 1.4243,-1.46519 1.898,-0.6011 z m 20.2527,-2.19329 c -3.5203,0.55282 -9.4195,1.35449 -13.1095,1.78139 -3.69,0.42682 -0.8099,-0.0258 6.4003,-1.00549 7.2102,-0.97979 10.2292,-1.32899 6.7092,-0.7759 z m -28.8409,3.91828 c -3.5202,0.55285 -9.4194,1.3545 -13.1093,1.78139 -3.69,0.42685 32.4316,-4.54191 39.6418,-5.52167 7.2102,-0.97977 -23.0124,3.18721 -26.5325,3.74028 z m 5.2279,-19.6441 c 1.0121,7.45054 5.888,43.78498 5.2985,39.99459 -0.5886,-3.79051 -5.9464,-43.22628 -6.3697,-46.88633 -0.4226,-3.66013 0.06,-0.5588 1.0713,6.89172 z m -522.0611,75.3662 c 3.8233,0.88311 7.3789,3.36054 9.5257,6.63738 2.1078,3.21745 2.7699,8.12933 1.5983,11.86827 -0.9029,2.88405 -3.2823,6.23255 -5.5446,7.80299 -6.5614,4.55442 -16.1196,2.54315 -20.5578,-4.32588 -1.1869,-1.83693 -1.54,-2.89243 -1.9227,-5.74692 -0.5596,-4.19351 0.041,-6.70847 2.4293,-10.12783 2.4344,-3.48526 4.9246,-5.01977 9.3958,-5.78969 2.051,-0.35323 4.3098,-0.49492 5.0747,-0.31814 l 1e-4,-10e-6 z m -10.7702,2.82819 c -2.4572,1.71496 -4.6399,4.76222 -5.5205,7.70714 -0.9172,3.06854 -0.1615,8.35641 1.6065,11.22893 2.3627,3.84067 7.0263,6.46253 11.698,6.57671 6.3555,0.15531 11.8123,-3.76269 13.6703,-9.81511 1.6732,-5.45076 -0.043,-11.35742 -4.332,-14.90447 -3.6252,-2.99829 -6.4622,-3.71399 -11.3676,-2.86758 -2.9538,0.50973 -4.1096,0.92632 -5.7545,2.07435 z m 7.8394,7.39295 0.6096,3.81134 4.9288,-0.57446 4.9288,-0.57444 -4.8972,0.80735 -4.8971,0.80736 0.4858,4.25863 0.4858,4.25866 -0.7218,-4.24119 -0.7217,-4.24113 -4.2573,0.48533 -4.2571,0.48533 4.2244,-0.71927 4.2244,-0.71932 -0.3719,-3.8277 -0.3719,-3.82773 0.6096,3.81132 z"
         style="fill:none;stroke:#000000;stroke-width:1.5625813;stroke-miterlimit:4;stroke-opacity:1;stroke-dasharray:none" />
      <path
         style="fill:none;stroke:#000000;stroke-width:1.5625813;stroke-miterlimit:4;stroke-opacity:1;stroke-dasharray:none"
         d="m 1796.2486,623.03891 c 34.4817,2.63996 65.6848,-18.82663 75.5209,-51.95563 1.848,-6.22484 2.0025,-7.07939 2.5885,-14.32172 0.5177,-6.39525 0.497,-8.81074 -0.1202,-14.23799 -1.2425,-10.91767 -3.4149,-16.91821 -14.4016,-39.77339 l -9.2982,-19.34311 -14.8335,-17.23771 c -8.1585,-9.48074 -15.4464,-17.64462 -16.1956,-18.14194 -0.7492,-0.49739 -8.8609,-5.25211 -18.0263,-10.56614 l -16.6641,-9.66187 -20.3641,-4.81226 -20.364,-4.81227 -23.004,-0.64744 -23.004,-0.64745 -25.5813,2.24175 c -21.0229,1.84227 -31.8692,3.10054 -60.8658,7.06098 -65.577,8.95665 -73.0423,9.85306 -104.3596,12.53142 l -29.9087,2.55788 -31.6476,-0.0727 -31.6476,-0.0726 -31.345,-3.97578 -31.3449,-3.97577 -15.5438,-3.67576 c -15.4846,-3.6618 -15.5976,-3.69574 -29.7158,-8.93603 -21.2,-7.86877 -24.9465,-8.42235 -39.0006,-5.76247 -2.6916,0.50942 -12.2612,2.9774 -21.2658,5.48439 -22.4501,6.25044 -31.6755,7.98897 -42.8379,8.07289 -4.4693,0.0335 -5.3847,0.13771 -5.0474,0.5738 1.3514,1.74591 13.3824,14.23611 18.682,19.39502 17.9832,17.50595 33.9682,29.1013 47.8764,34.72972 2.9791,1.2055 9.3462,3.2974 14.1496,4.64867 8.5861,2.41543 9.2667,2.53977 40.3469,7.37013 l 31.6134,4.91328 34.63,1.70111 34.6304,1.70114 31.3288,-1.39628 31.3288,-1.3963 28.0676,-3.49083 c 30.2409,-3.76111 53.6611,-7.69621 95.6089,-16.06417 11.0457,-2.20347 27.7915,-5.22537 37.2131,-6.7154 l 17.1304,-2.70908 13.708,-0.1018 13.7078,-0.10182 10.0653,3.62519 10.0654,3.62515 6.7217,8.40532 6.7219,8.40534 3.5599,14.49946 3.5599,14.49944 0.2428,13.07061 c 0.1337,7.1888 0.5534,16.26294 0.9332,20.16469 2.3803,24.44452 16.9038,45.94584 38.6996,57.29222 5.1181,2.66431 7.7448,3.76007 11.8873,4.95861 2.9245,0.84618 6.0824,1.76285 7.0179,2.03705 0.935,0.27433 4.8867,0.74252 8.7815,1.04068 z m -15.7159,-3.51077 c -4.1423,-1.19855 -6.7693,-2.29429 -11.8873,-4.95861 -21.7139,-11.30381 -35.9787,-32.42213 -38.35,-56.77577 -0.3799,-3.90174 -0.7998,-12.9759 -0.9332,-20.16471 l -0.2418,-13.0706 -3.5558,-14.52113 -3.5558,-14.52112 -6.8984,-8.64101 -6.8984,-8.64102 -10.0677,-3.62605 -10.0677,-3.62601 -13.7078,0.1018 -13.7079,0.1018 -17.1304,2.7091 c -9.4216,1.49001 -26.1676,4.51192 -37.2133,6.71538 -41.9475,8.36797 -65.3681,12.30308 -95.6088,16.06419 l -28.0674,3.4908 -31.3289,1.39629 -31.3291,1.39629 -34.6301,-1.70113 -34.6301,-1.70111 -31.6136,-4.91329 c -31.08,-4.83034 -31.7607,-4.95468 -40.3468,-7.37013 -4.8033,-1.35128 -11.1707,-3.44318 -14.1495,-4.64866 -13.7779,-5.57568 -29.7866,-17.15235 -47.5005,-34.35021 -8.6339,-8.38247 -18.5087,-18.96935 -17.9843,-19.28146 0.2272,-0.13516 2.2313,-0.24179 4.4536,-0.23679 10.1192,0.0226 20.0136,-1.86206 42.1913,-8.03659 17.2272,-4.79629 23.3739,-6.16528 30.4998,-6.79285 3.736,-0.32904 5.1236,-0.22957 9.9673,0.71418 4.78,0.9317 7.7602,1.88815 19.7992,6.35672 14.1185,5.24031 14.2311,5.27426 29.716,8.93604 l 15.5437,3.67576 31.3451,3.97579 31.3447,3.97574 31.6476,0.0727 31.6478,0.0726 29.9086,-2.55785 c 31.3175,-2.67836 38.7826,-3.57482 104.3595,-12.53144 28.9967,-3.96045 39.8431,-5.21872 60.8658,-7.06097 l 25.5815,-2.24177 23.004,0.64743 23.0039,0.64747 20.3719,4.81414 20.3721,4.81414 17.3997,10.09631 c 9.5699,5.55296 17.7638,10.39874 18.2088,10.76839 0.4448,0.36961 7.3174,8.23218 15.2724,17.47235 l 14.4635,16.80029 9.3029,19.31816 c 10.9922,22.82583 13.1621,28.8122 14.4064,39.74847 0.6228,5.42668 0.638,7.84276 0.1204,14.23802 -0.5862,7.24234 -0.7406,8.09683 -2.5887,14.3217 -9.8096,33.03958 -40.62,54.23849 -75.0043,51.606 -3.8948,-0.29821 -7.8465,-0.76648 -8.7815,-1.04068 -0.9352,-0.27423 -4.0934,-1.19089 -7.0179,-2.03707 z m 19.7494,-24.42659 c 1.4665,0.0817 4.4248,-0.064 6.5743,-0.32318 14.9604,-1.80326 27.5854,-10.50042 34.7582,-23.94426 2.2702,-4.25509 2.3908,-4.63244 3.7612,-11.75821 1.3592,-7.05645 1.3948,-7.56442 0.9033,-12.24552 -0.9673,-9.2103 -4.4262,-17.56708 -10.1195,-24.44525 -13.4687,-16.27145 -36.6343,-20.7343 -55.1693,-10.62707 -10.3305,5.63269 -17.9543,14.97318 -21.3025,26.0993 -6.1817,20.54218 3.0478,42.22746 22.2818,52.35254 3.3782,1.77836 4.9614,2.33078 9.8363,3.43214 3.1956,0.72195 7.0097,1.37927 8.4762,1.46053 l -10e-5,4e-5 z m -18.1748,-5.29751 c -19.1337,-10.07313 -28.157,-31.35863 -21.9863,-51.86436 7.0277,-23.35323 31.7364,-36.44103 54.9843,-29.12429 17.2517,5.42961 28.8287,19.71462 30.7407,37.93162 0.4911,4.68107 0.4538,5.18871 -0.9032,12.24552 -1.3724,7.12536 -1.491,7.50312 -3.7615,11.75822 -7.1361,13.37496 -19.3648,21.80143 -34.2413,23.59462 -5.2644,0.63453 -8.184,0.41387 -15.0504,-1.13745 -4.855,-1.09689 -6.4629,-1.65642 -9.7823,-3.40388 z m 17.5078,-26.06894 c 1.239,-6.43053 1.697,-9.13317 1.0178,-6.00593 -0.6786,3.12733 -1.693,8.38853 -2.2523,11.69189 -0.5599,3.30326 -0.01,0.74462 1.2345,-5.68596 z m 3.3161,-12.38218 c 0.2253,-0.362 0.2418,-0.90584 0.036,-1.2085 -0.5327,-0.78683 -1.899,-0.42451 -1.899,0.50348 0,1.03378 1.3414,1.5416 1.8619,0.70498 z m 20.1006,3.30823 c -3.4845,-0.74637 -9.3304,-1.87254 -12.9909,-2.50253 -3.6609,-0.62992 -0.8102,-0.0189 6.3348,1.35736 7.145,1.37639 10.1403,1.89178 6.6561,1.14517 z m -28.5804,-5.5048 c -3.4844,-0.74637 -9.3304,-1.87254 -12.9911,-2.50253 -3.6608,-0.62994 32.1316,6.32574 39.2766,7.70216 7.1451,1.37638 -22.8012,-4.45302 -26.2855,-5.19963 z m 4.1353,19.9028 c 1.4218,-7.3833 8.2965,-43.39305 7.4987,-39.64102 -0.798,3.75204 -8.3241,42.83202 -8.9488,46.4631 -0.6241,3.63122 0.031,0.56109 1.4501,-6.82208 z M 1281.4834,464.98173 c 3.8663,-0.67067 7.5531,-2.94802 9.8775,-6.10132 2.2824,-3.09613 3.2148,-7.96398 2.2517,-11.76179 -0.7422,-2.9295 -2.933,-6.4043 -5.1051,-8.09726 -6.2999,-4.90975 -15.9545,-3.42932 -20.7654,3.18419 -1.2864,1.76859 -1.6974,2.80297 -2.237,5.63196 -0.7905,4.15622 -0.3293,6.70051 1.8664,10.24653 2.2382,3.61435 4.6397,5.284 9.0617,6.29963 2.0283,0.46596 4.2761,0.73217 5.0494,0.59791 l 10e-5,10e-6 z m -10.5975,-3.41856 c -2.3589,-1.84804 -4.3698,-5.01117 -5.0865,-8.00023 -0.7467,-3.11451 0.3001,-8.35256 2.2238,-11.12308 2.5714,-3.70437 7.3726,-6.06471 12.0434,-5.92078 6.3543,0.19588 11.5865,4.40921 13.1075,10.55498 1.3697,5.53483 -0.6702,11.3377 -5.1484,14.64254 -3.7851,2.79353 -6.6574,3.3515 -11.5086,2.23551 -2.9212,-0.67206 -4.052,-1.15181 -5.6311,-2.38892 z m 8.2355,-6.94883 0.8194,-3.77185 4.8893,0.84571 4.8895,0.84572 -4.8451,-1.07651 -4.8449,-1.07653 0.72,-4.2253 0.7201,-4.22534 -0.9547,4.19482 -0.9549,4.19482 -4.2237,-0.71963 -4.2239,-0.71966 4.1782,0.95144 4.1783,0.95145 -0.5826,3.80135 -0.5829,3.80134 0.8191,-3.77186 z"
         id="path3672"
         sodipodi:nodetypes="cssscccscccccccscccccccsssssssscccccccscccccccccccssssccsscccccccccccscccccccssssssssscccccccscccccccscccsssssccsscsssssscccssscsssccssccssccssccssccssccssssssscccsssssscccccccccccccccccc" />
      <rect
         style="color:#000000;fill:none;stroke:#000000;stroke-width:0.70866144;stroke-linecap:round;stroke-linejoin:round;stroke-miterlimit:4;stroke-opacity:1;stroke-dasharray:none;stroke-dashoffset:0;marker:none;visibility:visible;display:inline;overflow:visible;enable-background:accumulate"
         id="rect3674"
         width="283.21973"
         height="1007.0014"
         x="-692.9903"
         y="873.08502"
         transform="matrix(0,-1,1,0,0,0)" />
    </g>
  </g>
</svg>
