<?xml version="1.0" encoding="UTF-8" standalone="no"?>
<!-- Created with Inkscape (http://www.inkscape.org/) -->
<svg
   xmlns:dc="http://purl.org/dc/elements/1.1/"
   xmlns:cc="http://web.resource.org/cc/"
   xmlns:rdf="http://www.w3.org/1999/02/22-rdf-syntax-ns#"
   xmlns:svg="http://www.w3.org/2000/svg"
   xmlns="http://www.w3.org/2000/svg"
   xmlns:xlink="http://www.w3.org/1999/xlink"
   xmlns:sodipodi="http://sodipodi.sourceforge.net/DTD/sodipodi-0.dtd"
   xmlns:inkscape="http://www.inkscape.org/namespaces/inkscape"
   width="55"
   height="55"
   id="svg2160"
   sodipodi:version="0.32"
   inkscape:version="0.45.1"
   version="1.0"
   inkscape:export-filename="C:\Users\svo\Pictures\kozelkino-55x55.png.png"
   inkscape:export-xdpi="90"
   inkscape:export-ydpi="90"
   sodipodi:docbase="C:\Users\svo\Pictures"
   sodipodi:docname="kozelkino2.svg"
   inkscape:output_extension="org.inkscape.output.svg.inkscape">
  <defs
     id="defs2162">
    <linearGradient
       id="linearGradient3425">
      <stop
         id="stop3427"
         offset="0"
         style="stop-color:#314653;stop-opacity:1;" />
      <stop
         id="stop3429"
         offset="1"
         style="stop-color:#040404;stop-opacity:1;" />
    </linearGradient>
    <radialGradient
       inkscape:collect="always"
       xlink:href="#linearGradient3425"
       id="radialGradient3423"
       cx="227.77779"
       cy="302.38095"
       fx="227.77779"
       fy="302.38095"
       r="336.21429"
       gradientUnits="userSpaceOnUse"
       gradientTransform="matrix(1.3225881,0,0,1.3651941,-73.478396,-110.42773)" />
  </defs>
  <sodipodi:namedview
     id="base"
     pagecolor="#ffffff"
     bordercolor="#666666"
     borderopacity="1.0"
     gridtolerance="10000"
     guidetolerance="10"
     objecttolerance="10"
     inkscape:pageopacity="0.0"
     inkscape:pageshadow="2"
     inkscape:zoom="7.9195959"
     inkscape:cx="37.040582"
     inkscape:cy="28.005115"
     inkscape:document-units="px"
     inkscape:current-layer="layer1"
     width="55px"
     height="55px"
     inkscape:window-width="1036"
     inkscape:window-height="749"
     inkscape:window-x="87"
     inkscape:window-y="4" />
  <metadata
     id="metadata2165">
    <rdf:RDF>
      <cc:Work
         rdf:about="">
        <dc:format>image/svg+xml</dc:format>
        <dc:type
           rdf:resource="http://purl.org/dc/dcmitype/StillImage" />
      </cc:Work>
    </rdf:RDF>
  </metadata>
  <g
     inkscape:groupmode="layer"
     id="layer3"
     inkscape:label="bg"
     style="display:none">
    <rect
       style="opacity:1;color:#000000;fill:#ffeeff;fill-opacity:1;fill-rule:evenodd;stroke:#ffffff;stroke-width:1;stroke-linecap:butt;stroke-linejoin:bevel;marker:none;marker-start:none;marker-mid:none;marker-end:none;stroke-miterlimit:4;stroke-dasharray:none;stroke-dashoffset:0;stroke-opacity:1;visibility:visible;display:inline;overflow:visible;enable-background:accumulate"
       id="rect2182"
       width="61.240498"
       height="59.977806"
       x="-3.4092648"
       y="-1.6948119" />
  </g>
  <g
     inkscape:label="Layer 1"
     inkscape:groupmode="layer"
     id="layer1"
     style="display:inline">
    <g
       style="display:inline"
       id="g3372"
       transform="matrix(8.0996454e-2,0,0,8.0996454e-2,9.1281435,3.053564)">
      <g
         id="g3338">
        <rect
           ry="32.045784"
           y="-35.725433"
           x="-111.15397"
           height="677.76837"
           width="677.76837"
           id="rect3336"
           style="opacity:1;color:#000000;fill:#984646;fill-opacity:1;fill-rule:nonzero;stroke:#ffffff;stroke-width:1.00944221;stroke-linecap:round;stroke-linejoin:round;marker:none;marker-start:none;marker-mid:none;marker-end:none;stroke-miterlimit:4;stroke-dasharray:none;stroke-dashoffset:0;stroke-opacity:1;visibility:visible;display:inline;overflow:visible;enable-background:accumulate" />
        <rect
           style="opacity:1;color:#000000;fill:url(#radialGradient3423);fill-opacity:1;fill-rule:nonzero;stroke:#ffffff;stroke-width:1;stroke-linecap:round;stroke-linejoin:round;marker:none;marker-start:none;marker-mid:none;marker-end:none;stroke-miterlimit:4;stroke-dasharray:none;stroke-dashoffset:0;stroke-opacity:1;visibility:visible;display:inline;overflow:visible;enable-background:accumulate"
           id="rect3334"
           width="671.42859"
           height="671.42859"
           x="-107.9365"
           y="-33.333332"
           ry="31.746031" />
      </g>
      <g
         id="g3362"
         transform="matrix(1.1616357,0,0,1.1616357,-34.968977,-43.746021)">
        <path
           style="fill:#ffffff;fill-opacity:1"
           d="M 230.87235,536.88398 C 228.96857,517.50543 227.42423,501.18849 227.44052,500.62412 C 227.47163,499.54528 242.14325,499.08794 242.15713,500.16537 C 242.19199,502.87359 235.54225,567.4175 235.01849,569.4546 C 234.56672,571.21171 233.15617,560.13088 230.87235,536.88398 z M 214.80092,528.71133 C 208.81831,519.57278 203.31982,502.62077 202.1496,489.70688 C 201.41905,481.645 202.19724,481.34969 207.09065,487.83183 C 208.74965,490.02943 211.55983,492.79899 213.3355,493.98642 L 216.564,496.14535 L 215.82405,501.1915 C 214.69432,508.89577 215.13453,520.2612 216.81547,526.78848 C 217.64705,530.01758 218.19937,532.78764 218.04285,532.94416 C 217.88634,533.10068 216.42747,531.19591 214.80092,528.71133 z M 252.35898,527.09896 C 254.13866,520.27575 254.61497,505.34856 253.20938,500.44756 C 252.36464,497.50213 252.53852,497.22518 259.77697,489.98673 L 267.21227,482.55143 L 266.66462,490.72461 C 266.36341,495.21987 265.04089,502.6136 263.72567,507.15514 C 261.14383,516.07045 254.98042,529.44904 252.36435,531.81655 C 250.81913,533.21495 250.81889,533.00357 252.35898,527.09896 z M 222.68303,496.70116 C 216.80004,494.34687 209.9531,489.17277 205.16095,483.46007 C 193.59072,469.66726 186.93013,452.07197 180.19041,417.49538 C 168.14822,355.71563 170.72009,364.02054 141.51861,292.61857 C 133.62216,273.31058 131.08248,263.3164 130.46065,249.10321 C 129.3987,224.83045 135.62384,205.78544 148.98796,192.42132 C 157.8104,183.59889 165.06211,179.98422 183.1928,175.37166 C 200.4728,170.97552 204.92145,168.73975 217.73507,158.01169 C 223.09073,153.52772 228.3478,149.39065 229.41745,148.81819 C 234.67761,146.00304 240.88324,148.48983 251.13479,157.52101 C 263.47473,168.39197 267.59606,170.5737 283.25286,174.52355 C 303.84983,179.71969 312.29163,183.96423 321.01737,193.51159 C 336.08524,209.99824 342.05248,238.8484 335.79127,264.93983 C 333.21859,275.6606 330.25304,283.445 319.18882,308.52024 C 297.98733,356.56995 294.71301,366.91223 287.09179,409.90202 C 280.53778,446.87182 276.71711,460.93862 269.41868,474.97022 C 265.07082,483.3292 255.91365,493.30989 249.94842,496.19148 C 244.54963,498.79944 228.66815,499.09632 222.68303,496.70116 z M 228.68949,460.40956 C 230.01597,459.40422 230.16449,458.75819 229.39828,457.32651 C 228.07888,454.86118 223.72881,451.30307 220.2955,449.88095 C 217.74771,448.82562 217.16191,448.92415 214.43935,450.866 L 211.41417,453.02369 L 216.15485,453.50072 C 221.8514,454.07395 225.07867,456.50655 224.29341,459.63529 C 223.67389,462.10368 225.92993,462.50103 228.68949,460.40956 z M 244.32093,459.06242 C 243.85977,456.75665 244.17496,456.18365 246.59201,454.93375 C 248.13561,454.13552 251.15074,453.48243 253.2923,453.48243 L 257.18604,453.48243 L 254.07211,451.18505 C 252.02191,449.67246 250.31561,449.08201 249.07708,449.45657 C 246.35628,450.27943 241.44063,454.14658 239.65884,456.86594 C 238.20682,459.08199 238.21741,459.27875 239.85307,460.47477 C 240.80457,461.17053 242.31956,461.73977 243.21973,461.73977 C 244.53872,461.73977 244.75246,461.2201 244.32093,459.06242 z M 207.48288,327.98449 C 215.47631,324.04934 222.79422,316.75362 226.68897,308.83665 C 231.61839,298.66805 232.05451,285.2664 227.01137,275.05285 C 223.4318,267.92065 214.69466,259.0767 208.03737,255.84688 C 192.33043,248.22657 173.82212,251.73055 161.92952,264.57599 C 155.54084,271.47652 152.56025,277.23917 151.16183,285.39417 C 147.93479,304.21283 159.44477,323.12144 178.18951,329.79522 C 181.90636,331.11855 185.02872,331.43866 192.20017,331.23164 C 200.46487,330.99306 202.06011,330.65411 207.48288,327.98449 z M 180.20779,327.97199 C 169.52475,324.27789 160.53428,316.42068 156.07979,306.88535 C 153.91261,302.24628 153.62804,300.51903 153.62088,291.96073 C 153.61323,282.80299 153.77718,281.9583 156.66858,276.25886 C 162.1129,265.5272 170.62904,258.50259 181.60354,255.69104 C 202.16835,250.42259 223.66232,264.18901 227.55885,285.12444 C 231.20714,304.72618 217.49009,325.02962 198.11657,328.70373 C 191.15338,330.02427 185.47141,329.79211 180.20779,327.97199 z M 180.37875,321.37751 C 181.69069,321.36225 187.10089,316.91468 187.10089,315.85144 C 187.10089,315.43177 185.8862,314.82162 184.40158,314.49554 C 180.37795,313.61181 174.5038,308.97448 171.59202,304.38309 L 169.01617,300.32138 L 167.1478,302.35647 C 163.23123,306.62253 163.73235,314.3285 168.19922,318.52491 C 170.70128,320.87547 174.85033,322.33189 177.46733,321.77824 C 178.47656,321.56474 179.78669,321.3844 180.37875,321.37751 z M 188.01837,312.76359 C 188.01837,312.06975 186.88299,311.27455 185.4953,310.99648 C 181.60842,310.21762 175.66242,305.43977 173.86429,301.6505 C 172.79665,299.40062 171.93547,298.54665 171.33737,299.14475 C 169.06902,301.4131 178.01468,311.35087 183.85322,313.04866 C 187.78573,314.19218 188.01837,314.17626 188.01837,312.76359 z M 188.93586,309.50887 C 188.93586,309.0434 187.51806,308.19462 185.78519,307.62273 C 182.79658,306.6364 176.86602,301.07904 175.86682,298.32849 C 175.52599,297.39028 175.11642,297.32004 174.32229,298.0636 C 172.84846,299.4436 178.19337,306.36746 182.49917,308.65604 C 185.93512,310.48228 188.93586,310.87987 188.93586,309.50887 z M 219.21277,305.84782 C 222.6817,303.46633 225.02922,298.08264 224.29809,294.18539 C 223.52471,290.06294 218.68532,284.82289 215.00152,284.11916 L 212.16649,283.57757 L 212.58582,290.82135 C 212.95953,297.2769 212.74561,298.57731 210.6199,302.7722 L 208.23464,307.47928 L 210.28314,307.85137 C 213.26294,308.39261 216.59496,307.645 219.21277,305.84782 z M 188.01131,305.99716 C 188.00742,305.6187 186.35595,304.36777 184.34138,303.21732 C 182.3268,302.06687 180.67852,300.65309 180.67852,300.07558 C 180.67852,299.49807 181.70906,299.9937 182.96861,301.17699 C 184.22815,302.36026 185.4885,303.09861 185.76937,302.81773 C 186.48459,302.10252 181.54752,298.3496 180.63407,298.91415 C 180.22364,299.1678 179.62849,298.95574 179.31154,298.4429 C 177.9033,296.16431 177.10905,297.79584 178.40579,300.30347 C 180.36313,304.08855 188.03843,308.6381 188.01131,305.99716 z M 209.61245,301.86849 C 212.0391,296.65624 212.47339,291.24949 210.84144,286.56806 C 209.41736,282.48295 208.1791,284.25151 209.07798,289.08673 C 209.88594,293.4328 208.85225,299.56837 206.77543,302.7537 C 205.21401,305.14853 205.07126,306.68527 206.41022,306.68527 C 206.93806,306.68527 208.37906,304.51772 209.61245,301.86849 z M 206.65683,300.69051 C 208.96323,295.85392 208.64162,285.58318 206.18376,285.58318 C 205.62678,285.58318 205.51721,287.31995 205.89904,290.09616 C 206.38667,293.64168 206.1101,295.53518 204.60891,298.92887 C 202.35168,304.0317 202.36561,303.93283 203.90438,303.93283 C 204.56784,303.93283 205.80644,302.47378 206.65683,300.69051 z M 203.45406,299.57479 C 204.87419,296.79593 205.38505,292.34694 204.59905,289.60316 C 203.68685,286.41882 202.96875,287.83445 202.4496,293.84052 C 202.25332,296.11129 201.77189,298.69171 201.37977,299.57479 C 200.43514,301.70209 202.3669,301.70209 203.45406,299.57479 z M 201.76656,294.01574 C 201.75608,291.49153 201.52607,290.97973 200.86312,292.00556 C 199.67977,293.83666 199.67977,298.70055 200.86312,297.96919 C 201.36774,297.65732 201.77428,295.87827 201.76656,294.01574 z M 193.06453,292.00556 C 193.06453,290.32406 192.51244,289.63346 190.99609,289.41813 C 188.74173,289.09801 187.46134,291.06557 188.37485,293.44614 C 188.70643,294.31022 189.7554,294.76916 190.99609,294.59299 C 192.51244,294.37766 193.06453,293.68706 193.06453,292.00556 z M 187.77774,282.42219 C 188.1624,282.0169 187.54816,281.97085 186.41278,282.31985 C 185.27739,282.66885 184.34844,282.73605 184.34844,282.46919 C 184.34844,282.20233 185.99991,281.53929 188.01837,280.99577 C 190.03683,280.45226 191.6883,279.61061 191.6883,279.12545 C 191.6883,277.61618 188.51175,278.15099 184.0452,280.41225 C 181.68891,281.60516 179.76103,282.26128 179.76103,281.87032 C 179.76103,280.71815 187.47043,277.32584 190.08886,277.32584 C 191.41361,277.32584 192.72592,276.95624 193.00511,276.5045 C 193.65372,275.45502 191.45575,274.59674 189.25372,275.03963 C 188.32197,275.22703 186.43182,275.61762 185.05338,275.90762 C 182.22176,276.50333 175.85292,281.70308 176.55785,282.84367 C 177.13747,283.78154 186.8333,283.4173 187.77774,282.42219 z M 185.7259,274.6688 C 187.93829,274.11171 190.82856,273.65592 192.14873,273.65592 C 193.5153,273.65592 194.30484,273.26078 193.98201,272.73843 C 193.12188,271.34671 186.55562,271.64112 182.71338,273.24367 C 178.85167,274.85434 173.15968,279.96393 173.89741,281.1576 C 174.16546,281.5913 176.03145,280.53664 178.04408,278.81391 C 180.05669,277.09118 183.51352,275.22588 185.7259,274.6688 z M 175.24307,276.77781 C 178.70257,273.07143 183.74248,270.90347 188.8993,270.90347 C 192.99724,270.90347 193.52327,270.68244 193.52327,268.96056 C 193.52327,267.89197 191.92037,265.41477 189.96128,263.45567 C 186.88615,260.38055 185.83876,259.89368 182.29836,259.89368 C 173.77093,259.89368 168.04923,267.38501 170.45184,275.40417 C 171.07087,277.47032 171.90168,279.16081 172.29808,279.16081 C 172.69447,279.16081 174.01971,278.08846 175.24307,276.77781 z M 294.7648,328.02323 C 317.97699,317.02956 325.24789,288.26208 309.94511,267.96197 C 292.06993,244.24944 256.67222,247.34651 242.50478,273.86258 C 236.18888,284.12311 238.05642,297.65062 241.9066,308.61955 C 245.17083,315.25502 252.29315,322.99462 258.46202,326.60982 C 265.05546,330.47384 269.39734,331.43127 279.30785,331.20657 C 287.51628,331.02046 289.14438,330.68516 294.7648,328.02323 z M 268.05048,328.19987 C 250.45181,323.46187 239.49631,307.91339 240.44998,289.02812 C 240.74165,283.25206 241.36811,281.03196 244.38152,275.09507 C 249.80798,264.40409 257.94107,258.23448 270.46891,255.30566 C 290.2046,250.69175 310.87518,265.01499 314.70397,285.9574 C 319.48206,312.09218 293.98199,335.18127 268.05048,328.19987 z M 290.03403,324.34681 C 292.75187,322.76112 297.14499,315.8601 295.43659,315.8601 C 294.95149,315.8601 294.32906,316.22503 294.05342,316.67104 C 293.07228,318.25855 285.65416,321.15328 280.91258,321.79891 C 276.04379,322.46187 275.46278,323.54432 279.17237,325.04106 C 282.42266,326.35248 287.10986,326.05288 290.03403,324.34681 z M 287.17238,319.06161 C 291.48503,317.59045 297.10645,313.64247 296.19711,312.72345 C 295.89851,312.42167 292.87523,313.62326 289.47869,315.39365 C 284.63205,317.91989 282.23169,318.61254 278.32371,318.61254 C 275.58499,318.61254 273.34422,319.02541 273.34422,319.53003 C 273.34422,320.93428 282.60201,320.62067 287.17238,319.06161 z M 287.56519,314.97393 C 291.91516,312.88383 295.86128,309.62937 295.04065,308.80875 C 294.71995,308.48805 293.73251,308.86314 292.84634,309.64227 C 288.9444,313.07294 283.51526,314.94261 277.45529,314.94261 C 273.6527,314.94261 271.61186,315.28384 271.968,315.8601 C 272.97284,317.48598 283.59283,316.88259 287.56519,314.97393 z M 286.85089,311.68695 C 292.11448,309.06399 293.99228,307.25992 293.04843,305.73275 C 292.62512,305.04782 291.55868,305.51552 289.88284,307.12109 C 286.63172,310.23585 279.44223,312.43292 274.94981,311.68454 C 272.87697,311.33924 271.50925,311.47779 271.50925,312.03307 C 271.50925,314.84518 280.9401,314.63241 286.85089,311.68695 z M 286.16327,308.53335 C 290.13605,306.50659 291.17885,305.3263 290.2807,303.87306 C 289.87496,303.21657 289.17963,303.33082 288.16222,304.22117 C 285.00189,306.98678 280.46098,308.64445 276.77451,308.37828 C 274.41869,308.20819 272.88372,308.52552 272.64846,309.23131 C 272.00672,311.1565 282.03684,310.63849 286.16327,308.53335 z M 281.69339,306.67501 C 285.18276,305.70573 289.43768,302.0723 287.01928,302.12704 C 286.3103,302.1431 284.9288,302.7624 283.94928,303.50326 C 282.96975,304.24414 280.62014,304.85031 278.7279,304.85031 C 275.39544,304.85031 273.6945,305.81224 274.8983,307.01605 C 275.72731,307.84506 277.86802,307.73762 281.69339,306.67501 z M 283.43652,303.01535 C 284.5259,302.31133 284.33468,302.12597 282.51904,302.12597 C 281.2575,302.12597 279.60604,302.52618 278.84911,303.01535 C 277.75973,303.71936 277.95095,303.90473 279.76659,303.90473 C 281.02813,303.90473 282.6796,303.50451 283.43652,303.01535 z M 255.34119,295.43662 C 254.68166,290.62476 256.09667,285.08423 259.12471,280.62215 C 261.68324,276.85196 261.82584,276.40836 260.47926,276.40836 C 258.70245,276.40836 254.23281,284.7855 253.61573,289.27219 C 252.95248,294.09458 253.70007,299.34542 255.04992,299.34542 C 255.50479,299.34542 255.63586,297.58646 255.34119,295.43662 z M 259.12785,293.00139 C 259.12374,287.33793 259.43886,286.20924 262.06531,282.47993 C 265.17608,278.06293 264.85162,275.96351 261.59411,279.43098 C 258.62724,282.58905 256.82954,287.78399 256.82954,293.1994 C 256.82954,297.79117 257.27541,299.34542 258.59266,299.34542 C 258.88954,299.34542 259.13038,296.49061 259.12785,293.00139 z M 252.24213,293.05995 C 252.24213,286.78127 253.47208,282.61081 256.54419,278.4727 C 258.27654,276.13925 258.45132,275.49088 257.34799,275.49088 C 253.62435,275.49088 248.56315,289.36839 249.96275,295.74075 C 250.95398,300.25376 252.24213,298.73875 252.24213,293.05995 z M 262.48828,292.65464 C 262.75246,288.50581 263.45609,286.03845 264.98896,283.88573 C 267.29192,280.65153 267.00931,279.02185 264.50491,281.0944 C 260.99238,284.00125 258.55797,292.85688 260.13889,296.97667 C 261.25862,299.89465 262.12926,298.29299 262.48828,292.65464 z M 251.66314,280.14618 C 252.94917,277.58577 253.70876,275.49242 253.35112,275.49431 C 252.99348,275.49619 251.33421,276.33097 249.66384,277.34936 C 244.06049,280.76563 242.59189,288.53729 246.43815,294.41938 L 248.11346,296.98143 L 248.71919,290.89146 C 249.0827,287.23668 250.2599,282.93997 251.66314,280.14618 z M 265.08688,293.85909 C 265.08688,292.35546 265.75786,289.44826 266.57795,287.39865 C 268.37005,282.91974 267.80563,281.804 265.51571,285.29886 C 263.56035,288.28311 262.48389,296.59297 264.05267,296.59297 C 264.62149,296.59297 265.08688,295.36273 265.08688,293.85909 z M 280.22273,292.93125 C 280.97134,290.5726 280.11968,289.25311 277.84869,289.25311 C 275.83947,289.25311 274.69934,291.26671 275.51097,293.38178 C 276.27843,295.38174 279.54408,295.06948 280.22273,292.93125 z M 268.3516,288.79437 C 268.79986,286.8729 268.70057,286.31891 268.0227,286.95941 C 267.48865,287.46402 266.76273,289.11549 266.40957,290.62934 C 265.96131,292.55081 266.0606,293.10479 266.73847,292.4643 C 267.27252,291.95969 267.99844,290.30822 268.3516,288.79437 z M 295.36379,288.64561 C 295.36379,287.01628 290.47392,279.99017 288.24976,278.42365 C 284.45449,275.75058 281.60156,275.05608 281.60156,276.80527 C 281.60156,277.59621 282.21967,278.24333 282.97514,278.24333 C 285.03118,278.24333 291.42336,284.38053 292.0761,286.98126 C 292.5671,288.93754 295.36379,290.35332 295.36379,288.64561 z M 290.84372,286.62649 C 289.09365,283.35646 281.60156,277.63863 281.60156,279.57304 C 281.60156,279.79978 282.94338,281.32197 284.58338,282.95569 C 286.29321,284.65899 286.58674,285.16804 285.27149,284.14905 L 282.97778,282.372 L 284.706,284.4147 C 285.65651,285.53818 286.79481,286.23453 287.23555,285.96214 C 287.67629,285.68975 288.28458,286.11235 288.58731,286.90126 C 288.89005,287.69016 289.7274,288.33563 290.44808,288.33563 C 291.44196,288.33563 291.53752,287.92286 290.84372,286.62649 z M 298.11624,287.3816 C 298.11624,285.61575 294.64324,279.63623 292.47126,277.66253 C 290.13012,275.53512 285.02464,272.73843 283.48209,272.73843 C 281.53739,272.73843 282.5963,274.38278 285.24844,275.48133 C 288.39352,276.78407 294.85998,283.46792 295.78015,286.3671 C 296.41717,288.37419 298.11624,289.11205 298.11624,287.3816 z M 300.86869,285.28174 C 300.86869,283.31387 295.41816,275.65454 292.57924,273.63306 C 289.0854,271.14522 283.43652,268.83368 283.43652,269.89183 C 283.43652,270.3582 285.28479,271.63451 287.54378,272.72807 C 291.96161,274.86671 295.6442,278.68009 297.93916,283.49266 C 299.40655,286.56981 300.86869,287.46275 300.86869,285.28174 z M 303.62113,283.1684 C 303.62113,279.2043 294.37452,269.26501 288.91664,267.36238 C 285.03917,266.01069 284.53405,267.81828 288.34437,269.41033 C 292.85909,271.2967 298.45575,276.66216 300.39539,280.9635 C 302.1146,284.77603 303.62113,285.80579 303.62113,283.1684 z M 305.4561,277.00278 C 305.4561,269.36214 298.15958,263.11993 291.25429,264.85304 L 288.63846,265.50957 L 291.77176,267.38041 C 295.89045,269.83961 300.53997,274.30692 302.83901,278.01396 C 303.8561,279.65396 304.86104,280.99577 305.07219,280.99577 C 305.28333,280.99577 305.4561,279.19893 305.4561,277.00278 z M 251.18523,239.39141 C 266.2964,232.26289 274.31782,229.66226 283.40634,228.94498 C 291.19949,228.32995 289.97004,227.03485 281.49237,226.92881 C 273.5925,226.82999 261.65785,229.23429 249.38253,233.3975 C 243.26489,235.47232 236.76087,237.14042 234.92916,237.10439 C 233.09745,237.06837 227.88298,235.76854 223.34144,234.2159 C 205.9488,228.26976 187.44522,225.30882 181.65324,227.54496 C 179.83273,228.24781 180.70042,228.50548 186.31873,228.93039 C 195.14654,229.59803 206.47693,233.40645 221.04773,240.60364 C 230.31228,245.17982 233.10659,246.17542 235.58804,245.7843 C 237.27752,245.51801 244.29625,242.64121 251.18523,239.39141 z M 72.920058,249.48951 C 70.53165,247.74306 71.543385,243.45028 76.202378,235.56263 C 78.283026,232.0401 81.728016,225.18046 83.857905,220.31898 C 93.010992,199.42702 105.84077,186.48393 121.41881,182.42637 C 127.01983,180.96749 141.06069,181.2467 147.87853,182.95255 C 152.68566,184.1553 152.316,186.20194 146.36344,191.34101 C 143.63783,193.69413 134.93585,202.86382 127.0257,211.71811 C 108.38004,232.58928 96.001507,242.51974 81.433963,248.29328 C 74.256903,251.13775 75.026331,251.02965 72.920058,249.48951 z M 382.01872,245.7547 C 374.43437,241.93422 363.75787,234.57791 357.41451,228.80195 C 355.96703,227.48394 349.80508,220.67078 343.72129,213.66156 C 337.63749,206.65235 329.22263,197.51115 325.02161,193.34778 C 320.82057,189.18441 317.38337,185.12953 317.38337,184.33696 C 317.38337,181.87744 324.12207,180.79111 337.06616,181.16393 C 348.53014,181.49412 349.28876,181.63885 355.00014,184.58547 C 366.26204,190.3957 377.78393,204.031 384.03017,218.94031 C 385.32751,222.03698 388.63729,228.86768 391.38523,234.11965 C 399.81113,250.22353 397.23726,253.42078 382.01872,245.7547 z M 153.62666,182.13706 C 153.99456,181.25399 154.49178,175.37063 154.7316,169.06294 C 155.08772,159.69539 154.80825,155.8537 153.20605,148.09246 C 147.39475,119.9419 131.99637,88.878038 110.38994,61.717524 C 106.97781,57.428295 98.895635,48.647186 92.429519,42.203949 C 85.963416,35.760711 80.672957,30.290223 80.672957,30.04731 C 80.672957,27.00956 100.26045,37.720537 116.45476,49.613779 C 153.62881,76.914722 190.5595,120.23189 200.8076,148.55388 C 203.88908,157.06999 204.33545,162.12198 202.26729,165.07469 C 200.30862,167.8711 193.94,170.57411 185.56829,172.1622 C 177.46331,173.69969 171.96738,175.6776 162.36872,180.51141 C 155.13665,184.15341 152.58924,184.62713 153.62666,182.13706 z M 301.78617,178.68695 C 294.9578,175.5342 288.48358,173.28222 283.43652,172.30423 C 268.48947,169.4079 263.27153,165.28217 264.68894,157.48092 C 269.31334,132.0288 306.48279,84.498945 345.36657,54.31565 C 361.33603,41.919462 381.94013,29.605647 386.71262,29.605647 C 387.63922,29.605647 383.65476,34.151054 376.86047,40.844804 C 360.95402,56.515889 348.28455,72.682838 337.14648,91.522071 C 328.44988,106.23177 320.85532,124.4208 316.61488,140.69548 C 312.90142,154.94765 312.18399,166.97381 314.26928,180.01451 C 314.72723,182.87828 314.57236,183.72131 313.60133,183.65057 C 312.90606,183.59993 307.58924,181.36629 301.78617,178.68695 z "
           id="path3332"
           sodipodi:nodetypes="csssccsscccssccscccssccssssssssssssssssccsscccsccscccssssccccsssssccssssssccsscccssccssssccssssccsccccccccsssssssccssssccssssccsssccssccsssccsssssssssssccsssssccssssssccsccssccssssccssssccssssccssssccssssccssssccssssccsssccssssccssssccsssccsssccsscccccsssccssccsssccssssccsscccsssccssssccssssccssscccccssccsssssssssccsssssssccssssssssccssssssssssccsssssssssc" />
        <g
           id="g3354">
          <path
             transform="matrix(0.9846539,0,0,0.9846539,0.5969342,3.294999)"
             d="M 196.13095 272.89188 A 11.979167 12.177579 0 1 1  172.17261,272.89188 A 11.979167 12.177579 0 1 1  196.13095 272.89188 z"
             sodipodi:ry="12.177579"
             sodipodi:rx="11.979167"
             sodipodi:cy="272.89188"
             sodipodi:cx="184.15178"
             id="path3342"
             style="opacity:1;color:#000000;fill:none;fill-opacity:1;fill-rule:nonzero;stroke:#000000;stroke-width:1.0155853;stroke-linecap:round;stroke-linejoin:round;marker:none;marker-start:none;marker-mid:none;marker-end:none;stroke-miterlimit:4;stroke-dasharray:none;stroke-dashoffset:0;stroke-opacity:1;visibility:visible;display:inline;overflow:visible;enable-background:accumulate"
             sodipodi:type="arc" />
          <use
             height="600"
             width="372"
             transform="translate(30.059524,23.90873)"
             id="use3344"
             xlink:href="#path3342"
             y="0"
             x="0" />
          <use
             height="600"
             width="372"
             transform="translate(-35.31746,13.690476)"
             id="use3346"
             xlink:href="#use3344"
             y="0"
             x="0" />
          <use
             height="600"
             width="372"
             transform="translate(79.712302,-22.222222)"
             id="use3348"
             xlink:href="#use3346"
             y="0"
             x="0" />
          <use
             height="600"
             width="372"
             transform="translate(37.301587,-10.615079)"
             id="use3350"
             xlink:href="#use3348"
             y="0"
             x="0" />
          <use
             height="600"
             width="372"
             transform="translate(-9.9206349,37.202381)"
             id="use3352"
             xlink:href="#use3350"
             y="0"
             x="0" />
        </g>
      </g>
    </g>
  </g>
</svg>
